- 
http://www.Speed.Cd
 
http://www.Speed.Cd       the fast  and The Hottest Private Tracker on the net

Please Seed back to make the speed Faster!!
 ............ NFO .............
-                              XViD is DEAD, Embrace the almighty x264!
             ,                                 ri                                                           
            .@M                     H@i,,,,,,;@@@@:            ...                                          
             @@:r@@@@@@@@@@@@@##@@@@@@@@@@@@@@@@@@@@@@@@@@@@@@@@@@@@2                                       
             M@@@@#BB###MM###MHA@@@#M########A&&AB#@@@@@@@@@@@@@@@@@@@@.                                    
 22;,9#AGG&h2#@@;hBs:,:##M;,,i@@BAGBAABMBBBBMHHHBMM################@@@@@:.   ....... ..  ...............:.  
 @@@@@@@@@@@@#M@#@MhMMA&GAAHBHMHh&GHBMHBMMMMM##MMBMBMM#BBHHBBBBBBHBBM#@@@@@M@@@@@@@@@@@@@@@@@@@@@@@@@@@@@A  
 :,  :r;::::,    &@AAAAAAAHBBHHHHBM#@@#@@@@#MAGABBBHH&3###MMMBABBHHBMH@B@A@@@.is,:;;;;;;;;;;;;;;;:;;:::9@h  
                  :,,........,;SHBh#AsXGi5MAAH&A#M#A3A2&AM@AB#MBHHBBBB#@@HBMh,S.                       ,@A  
                                          ##G##MBBM@#@     B 2@BHHHB#A  ,::rBMB@@@@@H2r,               :@A  
                                          @MA@###@h:@@       5@@#MBM#;           .;i9#@@@@@@A2r,        @M  
                                         :@BM@@##@r ;..   .   :X@#HB#.                  .:s3M@@@@@@#3r. @@  
                                         9@&#@###@              B@MM@@                          :r3#@@@@@@5 
                                         @@&@###@M               @@#@@M                               .:rAS 
                                        r@HM@###@r               :@##@@2                                    
                                        @@A@@##@@                 i###@@i                                   
                                       ;@M#@###@2                 ,@@@#Bs                                   
                                       @@#@###@@                   r,                                       
                                      H@#@@###@s                                                            
                                     S@@@####@#                                                             
                                    2@@@@###@@                                                              
                                    #@@@@@##@,                                                              
                                      ;M@@@@2                                                               
                                         i@@                                                                
                                    AKS74u
                                   Presents
------------------------------------------------------------------------------------------------------------------------------
Source: |Blu-Ray|
Subtitle(s): Yes (English and Spanish + source .sup files)
CRF-Setting: 20 
http://www.imdb.com/title/tt0454876/

General
Complete name                            : Life.Of.Pi.2012.BDRip.AAC-5.1.x264-AKS74ulop-bdrip-aks74u.mp4
Format                                   : MPEG-4
Format profile                           : Base Media
Codec ID                                 : isom
File size                                : 1.40 GiB
Duration                                 : 2h 6mn
Overall bit rate mode                    : Variable
Overall bit rate                         : 1 579 Kbps
Encoded date                             : UTC 2013-03-01 21:09:29
Tagged date                              : UTC 2013-03-01 21:09:29

Video
ID                                       : 1
Format                                   : AVC
Format/Info                              : Advanced Video Codec
Format profile                           : High@L3.1
Format settings, CABAC                   : Yes
Format settings, ReFrames                : 5 frames
Codec ID                                 : avc1
Codec ID/Info                            : Advanced Video Coding
Duration                                 : 2h 6mn
Bit rate                                 : 1 263 Kbps
Maximum bit rate                         : 8 135 Kbps
Width                                    : 720 pixels
Height                                   : 388 pixels
Display aspect ratio                     : 1.85:1
Frame rate mode                          : Constant
Frame rate                               : 23.976 fps
Color space                              : YUV
Chroma subsampling                       : 4:2:0
Bit depth                                : 8 bits
Scan type                                : Progressive
Bits/(Pixel*Frame)                       : 0.189
Stream size                              : 1.12 GiB (80%)
Writing library                          : x264 core 129 r2245 bc13772
Encoded date                             : UTC 2013-03-01 19:51:37
Tagged date                              : UTC 2013-03-01 21:14:05

Audio
ID                                       : 2
Format                                   : AAC
Format/Info                              : Advanced Audio Codec
Format profile                           : LC
Codec ID                                 : 40
Duration                                 : 2h 6mn
Bit rate mode                            : Variable
Bit rate                                 : 312 Kbps
Maximum bit rate                         : 410 Kbps
Channel(s)                               : 6 channels
Channel positions                        : Front: L C R, Side: L R, LFE
Sampling rate                            : 48.0 KHz
Compression mode                         : Lossy
Delay relative to video                  : 83ms
Stream size                              : 283 MiB (20%)
Language                                 : English
Encoded date                             : UTC 2013-03-01 18:27:17
Tagged date                              : UTC 2013-03-01 21:14:05
------------------------------------------------------------------------------------------------------------------------------
Plot: A young man who survives a disaster at sea is hurtled into an epic journey of adventure and discovery. While cast away, 
he forms an unexpected connection with another survivor: a fearsome Bengal tiger.
------------------------------------------------------------------------------------------------------------------------------
Notes: I inculded one of the making of extras that was on the bluray. It was the longest one on the bluray at 32mins and i went
with crf22 for the making of extra and crf20 for the movie. Enjoy! 
------------------------------------------------------------------------------------------------------------------------------
Contact @ aks74u@hushmail.com
currently looking for ANYTHING. If you have something to offer, contact me!
------------------------------------------------------------------------------------------------------------------------------
Welcome to the few that give p2p a good name
CM8, Rx, AXED and SANTi just to name a few